%TF.GenerationSoftware,KiCad,Pcbnew,8.0.1*%
%TF.CreationDate,2025-01-25T17:14:54-05:00*%
%TF.ProjectId,carlights,6361726c-6967-4687-9473-2e6b69636164,rev?*%
%TF.SameCoordinates,Original*%
%TF.FileFunction,Copper,L2,Bot*%
%TF.FilePolarity,Positive*%
%FSLAX46Y46*%
G04 Gerber Fmt 4.6, Leading zero omitted, Abs format (unit mm)*
G04 Created by KiCad (PCBNEW 8.0.1) date 2025-01-25 17:14:54*
%MOMM*%
%LPD*%
G01*
G04 APERTURE LIST*
%TA.AperFunction,ComponentPad*%
%ADD10C,2.400000*%
%TD*%
%TA.AperFunction,ComponentPad*%
%ADD11O,2.400000X2.400000*%
%TD*%
%TA.AperFunction,ComponentPad*%
%ADD12R,1.700000X1.700000*%
%TD*%
%TA.AperFunction,ComponentPad*%
%ADD13O,1.700000X1.700000*%
%TD*%
%TA.AperFunction,ComponentPad*%
%ADD14R,1.800000X1.800000*%
%TD*%
%TA.AperFunction,ComponentPad*%
%ADD15C,1.800000*%
%TD*%
%TA.AperFunction,Conductor*%
%ADD16C,0.300000*%
%TD*%
G04 APERTURE END LIST*
D10*
%TO.P,R4,1*%
%TO.N,/Left*%
X147260000Y-103750000D03*
D11*
%TO.P,R4,2*%
%TO.N,Net-(D4-A)*%
X162500000Y-103750000D03*
%TD*%
D10*
%TO.P,R3,1*%
%TO.N,/Brake*%
X147260000Y-93750000D03*
D11*
%TO.P,R3,2*%
%TO.N,Net-(D3-A)*%
X162500000Y-93750000D03*
%TD*%
D10*
%TO.P,R2,1*%
%TO.N,/Brake*%
X129500000Y-93750000D03*
D11*
%TO.P,R2,2*%
%TO.N,Net-(D2-A)*%
X114260000Y-93750000D03*
%TD*%
D10*
%TO.P,R1,1*%
%TO.N,/Right*%
X129500000Y-103750000D03*
D11*
%TO.P,R1,2*%
%TO.N,Net-(D1-A)*%
X114260000Y-103750000D03*
%TD*%
D12*
%TO.P,J1,1,Pin_1*%
%TO.N,/Brake*%
X138200000Y-94950000D03*
D13*
%TO.P,J1,2,Pin_2*%
%TO.N,/Left*%
X138200000Y-97490000D03*
%TO.P,J1,3,Pin_3*%
%TO.N,/Right*%
X138200000Y-100030000D03*
%TO.P,J1,4,Pin_4*%
%TO.N,GND*%
X138200000Y-102570000D03*
%TD*%
D14*
%TO.P,D4,1,K*%
%TO.N,GND*%
X190250000Y-97460000D03*
D15*
%TO.P,D4,2,A*%
%TO.N,Net-(D4-A)*%
X190250000Y-100000000D03*
%TD*%
D14*
%TO.P,D3,1,K*%
%TO.N,GND*%
X178250000Y-97460000D03*
D15*
%TO.P,D3,2,A*%
%TO.N,Net-(D3-A)*%
X178250000Y-100000000D03*
%TD*%
D14*
%TO.P,D2,1,K*%
%TO.N,GND*%
X98250000Y-97500000D03*
D15*
%TO.P,D2,2,A*%
%TO.N,Net-(D2-A)*%
X98250000Y-100040000D03*
%TD*%
D14*
%TO.P,D1,1,K*%
%TO.N,GND*%
X86250000Y-97500000D03*
D15*
%TO.P,D1,2,A*%
%TO.N,Net-(D1-A)*%
X86250000Y-100040000D03*
%TD*%
D16*
%TO.N,Net-(D4-A)*%
X186500000Y-103750000D02*
X162500000Y-103750000D01*
X190250000Y-100000000D02*
X186500000Y-103750000D01*
%TO.N,Net-(D3-A)*%
X168750000Y-100000000D02*
X162500000Y-93750000D01*
X178250000Y-100000000D02*
X168750000Y-100000000D01*
%TO.N,/Brake*%
X139400000Y-93750000D02*
X147260000Y-93750000D01*
X138200000Y-94950000D02*
X139400000Y-93750000D01*
X137000000Y-93750000D02*
X138200000Y-94950000D01*
X129500000Y-93750000D02*
X137000000Y-93750000D01*
%TO.N,/Left*%
X141010000Y-97500000D02*
X140750000Y-97500000D01*
X147260000Y-103750000D02*
X141010000Y-97500000D01*
X140750000Y-97500000D02*
X140740000Y-97490000D01*
X140740000Y-97490000D02*
X138200000Y-97490000D01*
%TO.N,Net-(D2-A)*%
X107970000Y-100040000D02*
X114260000Y-93750000D01*
X98250000Y-100040000D02*
X107970000Y-100040000D01*
%TO.N,Net-(D1-A)*%
X89960000Y-103750000D02*
X86250000Y-100040000D01*
X114260000Y-103750000D02*
X89960000Y-103750000D01*
%TO.N,/Right*%
X133220000Y-100030000D02*
X138200000Y-100030000D01*
X129500000Y-103750000D02*
X133220000Y-100030000D01*
%TD*%
%TA.AperFunction,Conductor*%
%TO.N,GND*%
G36*
X203642539Y-89270185D02*
G01*
X203688294Y-89322989D01*
X203699500Y-89374500D01*
X203699500Y-108125500D01*
X203679815Y-108192539D01*
X203627011Y-108238294D01*
X203575500Y-108249500D01*
X72924500Y-108249500D01*
X72857461Y-108229815D01*
X72811706Y-108177011D01*
X72800500Y-108125500D01*
X72800500Y-105118097D01*
X74499500Y-105118097D01*
X74536446Y-105351368D01*
X74609433Y-105575996D01*
X74716657Y-105786433D01*
X74855483Y-105977510D01*
X75022490Y-106144517D01*
X75213567Y-106283343D01*
X75312991Y-106334002D01*
X75424003Y-106390566D01*
X75424005Y-106390566D01*
X75424008Y-106390568D01*
X75544412Y-106429689D01*
X75648631Y-106463553D01*
X75881903Y-106500500D01*
X75881908Y-106500500D01*
X76118097Y-106500500D01*
X76351368Y-106463553D01*
X76575992Y-106390568D01*
X76786433Y-106283343D01*
X76977510Y-106144517D01*
X77144517Y-105977510D01*
X77283343Y-105786433D01*
X77390568Y-105575992D01*
X77463553Y-105351368D01*
X77500500Y-105118097D01*
X77500500Y-104881902D01*
X77463553Y-104648631D01*
X77390566Y-104424003D01*
X77283342Y-104213566D01*
X77144517Y-104022490D01*
X76977510Y-103855483D01*
X76786433Y-103716657D01*
X76575996Y-103609433D01*
X76351368Y-103536446D01*
X76118097Y-103499500D01*
X76118092Y-103499500D01*
X75881908Y-103499500D01*
X75881903Y-103499500D01*
X75648631Y-103536446D01*
X75424003Y-103609433D01*
X75213566Y-103716657D01*
X75167674Y-103750000D01*
X75022490Y-103855483D01*
X75022488Y-103855485D01*
X75022487Y-103855485D01*
X74855485Y-104022487D01*
X74855485Y-104022488D01*
X74855483Y-104022490D01*
X74799948Y-104098927D01*
X74716657Y-104213566D01*
X74609433Y-104424003D01*
X74536446Y-104648631D01*
X74499500Y-104881902D01*
X74499500Y-105118097D01*
X72800500Y-105118097D01*
X72800500Y-100040000D01*
X83544564Y-100040000D01*
X83564289Y-100366099D01*
X83623178Y-100687452D01*
X83720366Y-100999342D01*
X83720370Y-100999354D01*
X83720373Y-100999361D01*
X83854455Y-101297279D01*
X83982811Y-101509605D01*
X84023473Y-101576868D01*
X84224954Y-101834039D01*
X84455960Y-102065045D01*
X84713131Y-102266526D01*
X84713134Y-102266528D01*
X84713137Y-102266530D01*
X84992721Y-102435545D01*
X85290639Y-102569627D01*
X85290652Y-102569631D01*
X85290657Y-102569633D01*
X85503080Y-102635826D01*
X85602547Y-102666821D01*
X85923896Y-102725710D01*
X86146660Y-102739184D01*
X86212388Y-102762880D01*
X86226854Y-102775277D01*
X88490390Y-105038813D01*
X88671182Y-105219606D01*
X88671187Y-105219610D01*
X88874035Y-105375261D01*
X88874042Y-105375265D01*
X89095457Y-105503100D01*
X89095462Y-105503102D01*
X89095465Y-105503104D01*
X89331687Y-105600950D01*
X89578660Y-105667126D01*
X89832157Y-105700500D01*
X111921598Y-105700500D01*
X111988637Y-105720185D01*
X112011792Y-105739406D01*
X112197442Y-105936183D01*
X112373903Y-106084251D01*
X112465186Y-106160847D01*
X112465194Y-106160853D01*
X112757203Y-106352911D01*
X112757207Y-106352913D01*
X113069549Y-106509777D01*
X113397989Y-106629319D01*
X113738086Y-106709923D01*
X114085241Y-106750500D01*
X114085248Y-106750500D01*
X114434752Y-106750500D01*
X114434759Y-106750500D01*
X114781914Y-106709923D01*
X115122011Y-106629319D01*
X115450451Y-106509777D01*
X115762793Y-106352913D01*
X116054811Y-106160849D01*
X116322558Y-105936183D01*
X116562412Y-105681953D01*
X116771130Y-105401596D01*
X116945889Y-105098904D01*
X117084326Y-104777971D01*
X117184569Y-104443136D01*
X117245262Y-104098927D01*
X117265585Y-103750003D01*
X126494415Y-103750003D01*
X126514738Y-104098927D01*
X126514739Y-104098938D01*
X126575428Y-104443127D01*
X126575430Y-104443134D01*
X126675674Y-104777972D01*
X126814107Y-105098895D01*
X126814113Y-105098908D01*
X126988870Y-105401597D01*
X127197584Y-105681949D01*
X127197589Y-105681955D01*
X127251792Y-105739406D01*
X127437442Y-105936183D01*
X127613903Y-106084251D01*
X127705186Y-106160847D01*
X127705194Y-106160853D01*
X127997203Y-106352911D01*
X127997207Y-106352913D01*
X128309549Y-106509777D01*
X128637989Y-106629319D01*
X128978086Y-106709923D01*
X129325241Y-106750500D01*
X129325248Y-106750500D01*
X129674752Y-106750500D01*
X129674759Y-106750500D01*
X130021914Y-106709923D01*
X130362011Y-106629319D01*
X130690451Y-106509777D01*
X131002793Y-106352913D01*
X131294811Y-106160849D01*
X131562558Y-105936183D01*
X131802412Y-105681953D01*
X132011130Y-105401596D01*
X132185889Y-105098904D01*
X132324326Y-104777971D01*
X132424569Y-104443136D01*
X132485262Y-104098927D01*
X132505585Y-103750000D01*
X132495216Y-103571986D01*
X132510969Y-103503917D01*
X132531321Y-103477100D01*
X133991604Y-102016819D01*
X134052927Y-101983334D01*
X134079285Y-101980500D01*
X136350764Y-101980500D01*
X136417803Y-102000185D01*
X136436332Y-102015116D01*
X136436375Y-102015069D01*
X136437398Y-102015975D01*
X136438445Y-102016819D01*
X136439177Y-102017551D01*
X136448746Y-102025048D01*
X136691592Y-102215306D01*
X136966000Y-102381191D01*
X137258402Y-102512791D01*
X137258411Y-102512793D01*
X137258419Y-102512797D01*
X137466427Y-102577615D01*
X137524575Y-102616352D01*
X137552549Y-102680378D01*
X137541467Y-102749363D01*
X137494849Y-102801406D01*
X137429537Y-102820000D01*
X136869364Y-102820000D01*
X136926567Y-103033486D01*
X136926570Y-103033492D01*
X137026399Y-103247578D01*
X137161894Y-103441082D01*
X137328917Y-103608105D01*
X137522421Y-103743600D01*
X137736507Y-103843429D01*
X137736516Y-103843433D01*
X137950000Y-103900634D01*
X137950000Y-103003012D01*
X138007007Y-103035925D01*
X138134174Y-103070000D01*
X138265826Y-103070000D01*
X138392993Y-103035925D01*
X138450000Y-103003012D01*
X138450000Y-103900633D01*
X138663483Y-103843433D01*
X138663492Y-103843429D01*
X138877578Y-103743600D01*
X139071082Y-103608105D01*
X139238105Y-103441082D01*
X139373600Y-103247578D01*
X139473429Y-103033492D01*
X139473432Y-103033486D01*
X139530636Y-102820000D01*
X138970463Y-102820000D01*
X138903424Y-102800315D01*
X138857669Y-102747511D01*
X138847725Y-102678353D01*
X138876750Y-102614797D01*
X138933573Y-102577615D01*
X139141580Y-102512797D01*
X139141584Y-102512795D01*
X139141598Y-102512791D01*
X139434000Y-102381191D01*
X139708408Y-102215306D01*
X139960819Y-102017554D01*
X140187554Y-101790819D01*
X140385306Y-101538408D01*
X140551191Y-101264000D01*
X140682791Y-100971598D01*
X140686605Y-100959361D01*
X140763033Y-100714094D01*
X140778186Y-100665466D01*
X140834542Y-100357939D01*
X140865986Y-100295551D01*
X140926173Y-100260063D01*
X140995991Y-100262748D01*
X141044190Y-100292614D01*
X144228673Y-103477097D01*
X144262158Y-103538420D01*
X144264782Y-103571987D01*
X144254415Y-103749995D01*
X144254415Y-103750003D01*
X144274738Y-104098927D01*
X144274739Y-104098938D01*
X144335428Y-104443127D01*
X144335430Y-104443134D01*
X144435674Y-104777972D01*
X144574107Y-105098895D01*
X144574113Y-105098908D01*
X144748870Y-105401597D01*
X144957584Y-105681949D01*
X144957589Y-105681955D01*
X145011792Y-105739406D01*
X145197442Y-105936183D01*
X145373903Y-106084251D01*
X145465186Y-106160847D01*
X145465194Y-106160853D01*
X145757203Y-106352911D01*
X145757207Y-106352913D01*
X146069549Y-106509777D01*
X146397989Y-106629319D01*
X146738086Y-106709923D01*
X147085241Y-106750500D01*
X147085248Y-106750500D01*
X147434752Y-106750500D01*
X147434759Y-106750500D01*
X147781914Y-106709923D01*
X148122011Y-106629319D01*
X148450451Y-106509777D01*
X148762793Y-106352913D01*
X149054811Y-106160849D01*
X149322558Y-105936183D01*
X149562412Y-105681953D01*
X149771130Y-105401596D01*
X149945889Y-105098904D01*
X150084326Y-104777971D01*
X150184569Y-104443136D01*
X150245262Y-104098927D01*
X150265585Y-103750003D01*
X159494415Y-103750003D01*
X159514738Y-104098927D01*
X159514739Y-104098938D01*
X159575428Y-104443127D01*
X159575430Y-104443134D01*
X159675674Y-104777972D01*
X159814107Y-105098895D01*
X159814113Y-105098908D01*
X159988870Y-105401597D01*
X160197584Y-105681949D01*
X160197589Y-105681955D01*
X160251792Y-105739406D01*
X160437442Y-105936183D01*
X160613903Y-106084251D01*
X160705186Y-106160847D01*
X160705194Y-106160853D01*
X160997203Y-106352911D01*
X160997207Y-106352913D01*
X161309549Y-106509777D01*
X161637989Y-106629319D01*
X161978086Y-106709923D01*
X162325241Y-106750500D01*
X162325248Y-106750500D01*
X162674752Y-106750500D01*
X162674759Y-106750500D01*
X163021914Y-106709923D01*
X163362011Y-106629319D01*
X163690451Y-106509777D01*
X164002793Y-106352913D01*
X164294811Y-106160849D01*
X164562558Y-105936183D01*
X164748208Y-105739406D01*
X164808531Y-105704152D01*
X164838402Y-105700500D01*
X186627836Y-105700500D01*
X186627843Y-105700500D01*
X186881340Y-105667126D01*
X187128313Y-105600950D01*
X187364535Y-105503104D01*
X187585965Y-105375261D01*
X187788813Y-105219610D01*
X187890326Y-105118097D01*
X198999500Y-105118097D01*
X199036446Y-105351368D01*
X199109433Y-105575996D01*
X199216657Y-105786433D01*
X199355483Y-105977510D01*
X199522490Y-106144517D01*
X199713567Y-106283343D01*
X199812991Y-106334002D01*
X199924003Y-106390566D01*
X199924005Y-106390566D01*
X199924008Y-106390568D01*
X200044412Y-106429689D01*
X200148631Y-106463553D01*
X200381903Y-106500500D01*
X200381908Y-106500500D01*
X200618097Y-106500500D01*
X200851368Y-106463553D01*
X201075992Y-106390568D01*
X201286433Y-106283343D01*
X201477510Y-106144517D01*
X201644517Y-105977510D01*
X201783343Y-105786433D01*
X201890568Y-105575992D01*
X201963553Y-105351368D01*
X202000500Y-105118097D01*
X202000500Y-104881902D01*
X201963553Y-104648631D01*
X201890566Y-104424003D01*
X201783342Y-104213566D01*
X201644517Y-104022490D01*
X201477510Y-103855483D01*
X201286433Y-103716657D01*
X201075996Y-103609433D01*
X200851368Y-103536446D01*
X200618097Y-103499500D01*
X200618092Y-103499500D01*
X200381908Y-103499500D01*
X200381903Y-103499500D01*
X200148631Y-103536446D01*
X199924003Y-103609433D01*
X199713566Y-103716657D01*
X199667674Y-103750000D01*
X199522490Y-103855483D01*
X199522488Y-103855485D01*
X199522487Y-103855485D01*
X199355485Y-104022487D01*
X199355485Y-104022488D01*
X199355483Y-104022490D01*
X199299948Y-104098927D01*
X199216657Y-104213566D01*
X199109433Y-104424003D01*
X199036446Y-104648631D01*
X198999500Y-104881902D01*
X198999500Y-105118097D01*
X187890326Y-105118097D01*
X190273147Y-102735275D01*
X190334468Y-102701792D01*
X190353332Y-102699185D01*
X190576104Y-102685710D01*
X190897453Y-102626821D01*
X191209361Y-102529627D01*
X191507279Y-102395545D01*
X191786863Y-102226530D01*
X192044036Y-102025048D01*
X192275048Y-101794036D01*
X192476530Y-101536863D01*
X192645545Y-101257279D01*
X192779627Y-100959361D01*
X192876821Y-100647453D01*
X192935710Y-100326104D01*
X192955436Y-100000000D01*
X192935710Y-99673896D01*
X192876821Y-99352547D01*
X192792097Y-99080657D01*
X192779633Y-99040657D01*
X192779631Y-99040652D01*
X192779627Y-99040639D01*
X192645545Y-98742721D01*
X192476530Y-98463137D01*
X192476528Y-98463134D01*
X192476526Y-98463131D01*
X192275045Y-98205960D01*
X192044039Y-97974954D01*
X191786868Y-97773473D01*
X191725386Y-97736306D01*
X191507279Y-97604455D01*
X191209361Y-97470373D01*
X191209354Y-97470370D01*
X191209342Y-97470366D01*
X191151637Y-97452385D01*
X191093489Y-97413648D01*
X191065515Y-97349623D01*
X191076597Y-97280637D01*
X191123215Y-97228594D01*
X191188527Y-97210000D01*
X191650000Y-97210000D01*
X191650000Y-96512172D01*
X191649999Y-96512155D01*
X191643598Y-96452627D01*
X191643596Y-96452620D01*
X191593354Y-96317913D01*
X191593350Y-96317906D01*
X191507190Y-96202812D01*
X191507187Y-96202809D01*
X191392093Y-96116649D01*
X191392086Y-96116645D01*
X191257379Y-96066403D01*
X191257372Y-96066401D01*
X191197844Y-96060000D01*
X190500000Y-96060000D01*
X190500000Y-97084722D01*
X190423694Y-97040667D01*
X190309244Y-97010000D01*
X190190756Y-97010000D01*
X190076306Y-97040667D01*
X190000000Y-97084722D01*
X190000000Y-96060000D01*
X189302155Y-96060000D01*
X189242627Y-96066401D01*
X189242620Y-96066403D01*
X189107913Y-96116645D01*
X189107906Y-96116649D01*
X188992812Y-96202809D01*
X188992809Y-96202812D01*
X188906649Y-96317906D01*
X188906645Y-96317913D01*
X188856403Y-96452620D01*
X188856401Y-96452627D01*
X188850000Y-96512155D01*
X188850000Y-97210000D01*
X189311473Y-97210000D01*
X189378512Y-97229685D01*
X189424267Y-97282489D01*
X189434211Y-97351647D01*
X189405186Y-97415203D01*
X189348363Y-97452385D01*
X189290657Y-97470366D01*
X189290641Y-97470372D01*
X189290639Y-97470373D01*
X189201765Y-97510372D01*
X188992725Y-97604453D01*
X188992723Y-97604454D01*
X188713131Y-97773473D01*
X188455960Y-97974954D01*
X188224954Y-98205960D01*
X188023473Y-98463131D01*
X187854454Y-98742723D01*
X187854453Y-98742725D01*
X187720372Y-99040642D01*
X187720366Y-99040657D01*
X187623178Y-99352547D01*
X187564289Y-99673899D01*
X187550814Y-99896660D01*
X187527117Y-99962388D01*
X187514721Y-99976853D01*
X185728396Y-101763181D01*
X185667073Y-101796666D01*
X185640715Y-101799500D01*
X180525439Y-101799500D01*
X180458400Y-101779815D01*
X180412645Y-101727011D01*
X180402701Y-101657853D01*
X180427828Y-101599027D01*
X180467007Y-101549017D01*
X180476530Y-101536863D01*
X180645545Y-101257279D01*
X180779627Y-100959361D01*
X180876821Y-100647453D01*
X180935710Y-100326104D01*
X180955436Y-100000000D01*
X180935710Y-99673896D01*
X180876821Y-99352547D01*
X180792097Y-99080657D01*
X180779633Y-99040657D01*
X180779631Y-99040652D01*
X180779627Y-99040639D01*
X180645545Y-98742721D01*
X180476530Y-98463137D01*
X180476528Y-98463134D01*
X180476526Y-98463131D01*
X180275045Y-98205960D01*
X180044039Y-97974954D01*
X179786868Y-97773473D01*
X179725386Y-97736306D01*
X179507279Y-97604455D01*
X179209361Y-97470373D01*
X179209354Y-97470370D01*
X179209342Y-97470366D01*
X179151637Y-97452385D01*
X179093489Y-97413648D01*
X179065515Y-97349623D01*
X179076597Y-97280637D01*
X179123215Y-97228594D01*
X179188527Y-97210000D01*
X179650000Y-97210000D01*
X179650000Y-96512172D01*
X179649999Y-96512155D01*
X179643598Y-96452627D01*
X179643596Y-96452620D01*
X179593354Y-96317913D01*
X179593350Y-96317906D01*
X179507190Y-96202812D01*
X179507187Y-96202809D01*
X179392093Y-96116649D01*
X179392086Y-96116645D01*
X179257379Y-96066403D01*
X179257372Y-96066401D01*
X179197844Y-96060000D01*
X178500000Y-96060000D01*
X178500000Y-97084722D01*
X178423694Y-97040667D01*
X178309244Y-97010000D01*
X178190756Y-97010000D01*
X178076306Y-97040667D01*
X178000000Y-97084722D01*
X178000000Y-96060000D01*
X177302155Y-96060000D01*
X177242627Y-96066401D01*
X177242620Y-96066403D01*
X177107913Y-96116645D01*
X177107906Y-96116649D01*
X176992812Y-96202809D01*
X176992809Y-96202812D01*
X176906649Y-96317906D01*
X176906645Y-96317913D01*
X176856403Y-96452620D01*
X176856401Y-96452627D01*
X176850000Y-96512155D01*
X176850000Y-97210000D01*
X177311473Y-97210000D01*
X177378512Y-97229685D01*
X177424267Y-97282489D01*
X177434211Y-97351647D01*
X177405186Y-97415203D01*
X177348363Y-97452385D01*
X177290657Y-97470366D01*
X177290641Y-97470372D01*
X177290639Y-97470373D01*
X177201765Y-97510372D01*
X176992725Y-97604453D01*
X176992723Y-97604454D01*
X176713131Y-97773473D01*
X176455960Y-97974954D01*
X176417736Y-98013180D01*
X176356414Y-98046666D01*
X176330054Y-98049500D01*
X169609286Y-98049500D01*
X169542247Y-98029815D01*
X169521605Y-98013181D01*
X165531325Y-94022902D01*
X165497840Y-93961579D01*
X165495216Y-93928010D01*
X165505585Y-93750002D01*
X165505585Y-93749996D01*
X165499441Y-93644514D01*
X165485262Y-93401073D01*
X165465048Y-93286433D01*
X165424571Y-93056872D01*
X165424569Y-93056865D01*
X165424569Y-93056864D01*
X165324326Y-92722029D01*
X165279494Y-92618097D01*
X198999500Y-92618097D01*
X199036446Y-92851368D01*
X199109433Y-93075996D01*
X199216657Y-93286433D01*
X199355483Y-93477510D01*
X199522490Y-93644517D01*
X199713567Y-93783343D01*
X199812991Y-93834002D01*
X199924003Y-93890566D01*
X199924005Y-93890566D01*
X199924008Y-93890568D01*
X200039242Y-93928010D01*
X200148631Y-93963553D01*
X200381903Y-94000500D01*
X200381908Y-94000500D01*
X200618097Y-94000500D01*
X200851368Y-93963553D01*
X200857443Y-93961579D01*
X201075992Y-93890568D01*
X201286433Y-93783343D01*
X201477510Y-93644517D01*
X201644517Y-93477510D01*
X201783343Y-93286433D01*
X201890568Y-93075992D01*
X201963553Y-92851368D01*
X202000500Y-92618097D01*
X202000500Y-92381902D01*
X201963553Y-92148631D01*
X201890566Y-91924003D01*
X201783342Y-91713566D01*
X201644517Y-91522490D01*
X201477510Y-91355483D01*
X201286433Y-91216657D01*
X201075996Y-91109433D01*
X200851368Y-91036446D01*
X200618097Y-90999500D01*
X200618092Y-90999500D01*
X200381908Y-90999500D01*
X200381903Y-90999500D01*
X200148631Y-91036446D01*
X199924003Y-91109433D01*
X199713566Y-91216657D01*
X199604550Y-91295862D01*
X199522490Y-91355483D01*
X199522488Y-91355485D01*
X199522487Y-91355485D01*
X199355485Y-91522487D01*
X199355485Y-91522488D01*
X199355483Y-91522490D01*
X199325457Y-91563817D01*
X199216657Y-91713566D01*
X199109433Y-91924003D01*
X199036446Y-92148631D01*
X198999500Y-92381902D01*
X198999500Y-92618097D01*
X165279494Y-92618097D01*
X165185889Y-92401096D01*
X165026338Y-92124745D01*
X165011129Y-92098402D01*
X164802415Y-91818050D01*
X164802410Y-91818044D01*
X164686433Y-91695117D01*
X164562558Y-91563817D01*
X164414488Y-91439572D01*
X164294813Y-91339152D01*
X164294805Y-91339146D01*
X164002796Y-91147088D01*
X163690458Y-90990226D01*
X163690452Y-90990223D01*
X163362012Y-90870681D01*
X163362009Y-90870680D01*
X163021915Y-90790077D01*
X162978519Y-90785004D01*
X162674759Y-90749500D01*
X162325241Y-90749500D01*
X162021480Y-90785004D01*
X161978085Y-90790077D01*
X161978083Y-90790077D01*
X161637990Y-90870680D01*
X161637987Y-90870681D01*
X161309547Y-90990223D01*
X161309541Y-90990226D01*
X160997203Y-91147088D01*
X160705194Y-91339146D01*
X160705186Y-91339152D01*
X160437442Y-91563817D01*
X160437440Y-91563819D01*
X160197589Y-91818044D01*
X160197584Y-91818050D01*
X159988870Y-92098402D01*
X159814113Y-92401091D01*
X159814107Y-92401104D01*
X159675674Y-92722027D01*
X159575430Y-93056865D01*
X159575428Y-93056872D01*
X159514739Y-93401061D01*
X159514738Y-93401072D01*
X159494415Y-93749996D01*
X159494415Y-93750003D01*
X159514738Y-94098927D01*
X159514739Y-94098938D01*
X159575428Y-94443127D01*
X159575430Y-94443134D01*
X159675674Y-94777972D01*
X159814107Y-95098895D01*
X159814113Y-95098908D01*
X159988870Y-95401597D01*
X160197584Y-95681949D01*
X160197589Y-95681955D01*
X160283476Y-95772989D01*
X160437442Y-95936183D01*
X160613903Y-96084251D01*
X160705186Y-96160847D01*
X160705194Y-96160853D01*
X160997203Y-96352911D01*
X161275400Y-96492627D01*
X161309549Y-96509777D01*
X161637989Y-96629319D01*
X161978086Y-96709923D01*
X162325241Y-96750500D01*
X162325248Y-96750500D01*
X162674748Y-96750500D01*
X162674759Y-96750500D01*
X162675385Y-96750426D01*
X162675543Y-96750453D01*
X162678354Y-96750290D01*
X162678366Y-96750500D01*
X162678367Y-96750500D01*
X162678367Y-96750512D01*
X162678391Y-96750940D01*
X162744254Y-96762182D01*
X162777480Y-96785904D01*
X167461181Y-101469606D01*
X167461188Y-101469612D01*
X167601301Y-101577124D01*
X167642504Y-101633552D01*
X167646659Y-101703298D01*
X167612447Y-101764218D01*
X167550730Y-101796971D01*
X167525815Y-101799500D01*
X164838402Y-101799500D01*
X164771363Y-101779815D01*
X164748208Y-101760594D01*
X164746154Y-101758417D01*
X164562558Y-101563817D01*
X164414488Y-101439572D01*
X164294813Y-101339152D01*
X164294805Y-101339146D01*
X164002796Y-101147088D01*
X163690458Y-100990226D01*
X163690452Y-100990223D01*
X163362012Y-100870681D01*
X163362009Y-100870680D01*
X163021915Y-100790077D01*
X162978519Y-100785004D01*
X162674759Y-100749500D01*
X162325241Y-100749500D01*
X162021480Y-100785004D01*
X161978085Y-100790077D01*
X161978083Y-100790077D01*
X161637990Y-100870680D01*
X161637987Y-100870681D01*
X161309547Y-100990223D01*
X161309541Y-100990226D01*
X160997203Y-101147088D01*
X160705194Y-101339146D01*
X160705186Y-101339152D01*
X160437442Y-101563817D01*
X160437440Y-101563819D01*
X160197589Y-101818044D01*
X160197584Y-101818050D01*
X159988870Y-102098402D01*
X159814113Y-102401091D01*
X159814107Y-102401104D01*
X159675674Y-102722027D01*
X159575430Y-103056865D01*
X159575428Y-103056872D01*
X159514739Y-103401061D01*
X159514738Y-103401072D01*
X159494415Y-103749996D01*
X159494415Y-103750003D01*
X150265585Y-103750003D01*
X150265585Y-103750000D01*
X150245262Y-103401073D01*
X150218197Y-103247578D01*
X150184571Y-103056872D01*
X150184569Y-103056865D01*
X150130723Y-102877007D01*
X150084326Y-102722029D01*
X149945889Y-102401096D01*
X149771130Y-102098404D01*
X149771129Y-102098402D01*
X149562415Y-101818050D01*
X149562410Y-101818044D01*
X149446433Y-101695117D01*
X149322558Y-101563817D01*
X149174488Y-101439572D01*
X149054813Y-101339152D01*
X149054805Y-101339146D01*
X148762796Y-101147088D01*
X148450458Y-100990226D01*
X148450452Y-100990223D01*
X148122012Y-100870681D01*
X148122009Y-100870680D01*
X147781915Y-100790077D01*
X147738519Y-100785004D01*
X147434759Y-100749500D01*
X147085241Y-100749500D01*
X147085218Y-100749501D01*
X147084579Y-100749576D01*
X147084415Y-100749548D01*
X147081631Y-100749710D01*
X147081593Y-100749065D01*
X147015709Y-100737799D01*
X146982518Y-100714094D01*
X142298818Y-96030394D01*
X142298811Y-96030388D01*
X142158699Y-95922876D01*
X142117496Y-95866448D01*
X142113341Y-95796702D01*
X142147553Y-95735782D01*
X142209271Y-95703029D01*
X142234185Y-95700500D01*
X144921598Y-95700500D01*
X144988637Y-95720185D01*
X145011792Y-95739406D01*
X145197442Y-95936183D01*
X145373903Y-96084251D01*
X145465186Y-96160847D01*
X145465194Y-96160853D01*
X145757203Y-96352911D01*
X146035400Y-96492627D01*
X146069549Y-96509777D01*
X146397989Y-96629319D01*
X146738086Y-96709923D01*
X147085241Y-96750500D01*
X147085248Y-96750500D01*
X147434752Y-96750500D01*
X147434759Y-96750500D01*
X147781914Y-96709923D01*
X148122011Y-96629319D01*
X148450451Y-96509777D01*
X148762793Y-96352913D01*
X149054811Y-96160849D01*
X149322558Y-95936183D01*
X149562412Y-95681953D01*
X149771130Y-95401596D01*
X149945889Y-95098904D01*
X150084326Y-94777971D01*
X150184569Y-94443136D01*
X150245262Y-94098927D01*
X150265585Y-93750000D01*
X150245262Y-93401073D01*
X150225048Y-93286433D01*
X150184571Y-93056872D01*
X150184569Y-93056865D01*
X150184569Y-93056864D01*
X150084326Y-92722029D01*
X149945889Y-92401096D01*
X149786338Y-92124745D01*
X149771129Y-92098402D01*
X149562415Y-91818050D01*
X149562410Y-91818044D01*
X149446433Y-91695117D01*
X149322558Y-91563817D01*
X149174488Y-91439572D01*
X149054813Y-91339152D01*
X149054805Y-91339146D01*
X148762796Y-91147088D01*
X148450458Y-90990226D01*
X148450452Y-90990223D01*
X148122012Y-90870681D01*
X148122009Y-90870680D01*
X147781915Y-90790077D01*
X147738519Y-90785004D01*
X147434759Y-90749500D01*
X147085241Y-90749500D01*
X146781480Y-90785004D01*
X146738085Y-90790077D01*
X146738083Y-90790077D01*
X146397990Y-90870680D01*
X146397987Y-90870681D01*
X146069547Y-90990223D01*
X146069541Y-90990226D01*
X145757203Y-91147088D01*
X145465194Y-91339146D01*
X145465186Y-91339152D01*
X145197442Y-91563817D01*
X145197440Y-91563819D01*
X145011792Y-91760594D01*
X144951469Y-91795848D01*
X144921598Y-91799500D01*
X139272149Y-91799500D01*
X139046826Y-91829165D01*
X139018660Y-91832874D01*
X138771687Y-91899050D01*
X138771677Y-91899053D01*
X138535468Y-91996894D01*
X138535457Y-91996899D01*
X138314042Y-92124734D01*
X138314025Y-92124745D01*
X138275486Y-92154318D01*
X138210316Y-92179512D01*
X138141872Y-92165473D01*
X138124514Y-92154318D01*
X138085974Y-92124745D01*
X138085957Y-92124734D01*
X137864542Y-91996899D01*
X137864531Y-91996894D01*
X137628322Y-91899053D01*
X137628315Y-91899051D01*
X137628313Y-91899050D01*
X137381340Y-91832874D01*
X137325007Y-91825457D01*
X137127850Y-91799500D01*
X137127843Y-91799500D01*
X131838402Y-91799500D01*
X131771363Y-91779815D01*
X131748208Y-91760594D01*
X131703839Y-91713566D01*
X131562558Y-91563817D01*
X131414488Y-91439572D01*
X131294813Y-91339152D01*
X131294805Y-91339146D01*
X131002796Y-91147088D01*
X130690458Y-90990226D01*
X130690452Y-90990223D01*
X130362012Y-90870681D01*
X130362009Y-90870680D01*
X130021915Y-90790077D01*
X129978519Y-90785004D01*
X129674759Y-90749500D01*
X129325241Y-90749500D01*
X129021480Y-90785004D01*
X128978085Y-90790077D01*
X128978083Y-90790077D01*
X128637990Y-90870680D01*
X128637987Y-90870681D01*
X128309547Y-90990223D01*
X128309541Y-90990226D01*
X127997203Y-91147088D01*
X127705194Y-91339146D01*
X127705186Y-91339152D01*
X127437442Y-91563817D01*
X127437440Y-91563819D01*
X127197589Y-91818044D01*
X127197584Y-91818050D01*
X126988870Y-92098402D01*
X126814113Y-92401091D01*
X126814107Y-92401104D01*
X126675674Y-92722027D01*
X126575430Y-93056865D01*
X126575428Y-93056872D01*
X126514739Y-93401061D01*
X126514738Y-93401072D01*
X126494415Y-93749996D01*
X126494415Y-93750003D01*
X126514738Y-94098927D01*
X126514739Y-94098938D01*
X126575428Y-94443127D01*
X126575430Y-94443134D01*
X126675674Y-94777972D01*
X126814107Y-95098895D01*
X126814113Y-95098908D01*
X126988870Y-95401597D01*
X127197584Y-95681949D01*
X127197589Y-95681955D01*
X127283476Y-95772989D01*
X127437442Y-95936183D01*
X127613903Y-96084251D01*
X127705186Y-96160847D01*
X127705194Y-96160853D01*
X127997203Y-96352911D01*
X128275400Y-96492627D01*
X128309549Y-96509777D01*
X128637989Y-96629319D01*
X128978086Y-96709923D01*
X129325241Y-96750500D01*
X129325248Y-96750500D01*
X129674752Y-96750500D01*
X129674759Y-96750500D01*
X130021914Y-96709923D01*
X130362011Y-96629319D01*
X130690451Y-96509777D01*
X131002793Y-96352913D01*
X131294811Y-96160849D01*
X131562558Y-95936183D01*
X131748208Y-95739406D01*
X131808531Y-95704152D01*
X131838402Y-95700500D01*
X135425501Y-95700500D01*
X135492540Y-95720185D01*
X135538295Y-95772989D01*
X135549501Y-95824500D01*
X135549501Y-95889903D01*
X135555804Y-96002158D01*
X135555805Y-96002165D01*
X135605971Y-96267299D01*
X135605973Y-96267309D01*
X135637677Y-96357913D01*
X135691654Y-96512172D01*
X135696635Y-96526405D01*
X135695163Y-96526919D01*
X135703077Y-96589547D01*
X135699044Y-96606693D01*
X135621816Y-96854525D01*
X135564014Y-97169939D01*
X135544655Y-97490000D01*
X135564014Y-97810060D01*
X135564014Y-97810065D01*
X135564015Y-97810066D01*
X135586570Y-97933150D01*
X135579293Y-98002638D01*
X135535601Y-98057162D01*
X135469368Y-98079408D01*
X135464602Y-98079500D01*
X133092149Y-98079500D01*
X132866826Y-98109165D01*
X132838660Y-98112874D01*
X132591687Y-98179050D01*
X132591677Y-98179053D01*
X132355468Y-98276894D01*
X132355457Y-98276899D01*
X132134042Y-98404734D01*
X132134026Y-98404745D01*
X131931188Y-98560388D01*
X131931181Y-98560394D01*
X129777481Y-100714094D01*
X129716158Y-100747579D01*
X129678385Y-100749430D01*
X129678369Y-100749710D01*
X129675768Y-100749558D01*
X129675416Y-100749576D01*
X129674771Y-100749500D01*
X129674759Y-100749500D01*
X129325241Y-100749500D01*
X129021480Y-100785004D01*
X128978085Y-100790077D01*
X128978083Y-100790077D01*
X128637990Y-100870680D01*
X128637987Y-100870681D01*
X128309547Y-100990223D01*
X128309541Y-100990226D01*
X127997203Y-101147088D01*
X127705194Y-101339146D01*
X127705186Y-101339152D01*
X127437442Y-101563817D01*
X127437440Y-101563819D01*
X127197589Y-101818044D01*
X127197584Y-101818050D01*
X126988870Y-102098402D01*
X126814113Y-102401091D01*
X126814107Y-102401104D01*
X126675674Y-102722027D01*
X126575430Y-103056865D01*
X126575428Y-103056872D01*
X126514739Y-103401061D01*
X126514738Y-103401072D01*
X126494415Y-103749996D01*
X126494415Y-103750003D01*
X117265585Y-103750003D01*
X117265585Y-103750000D01*
X117245262Y-103401073D01*
X117218197Y-103247578D01*
X117184571Y-103056872D01*
X117184569Y-103056865D01*
X117130723Y-102877007D01*
X117084326Y-102722029D01*
X116945889Y-102401096D01*
X116771130Y-102098404D01*
X116771129Y-102098402D01*
X116562415Y-101818050D01*
X116562410Y-101818044D01*
X116446433Y-101695117D01*
X116322558Y-101563817D01*
X116174488Y-101439572D01*
X116054813Y-101339152D01*
X116054805Y-101339146D01*
X115762796Y-101147088D01*
X115450458Y-100990226D01*
X115450452Y-100990223D01*
X115122012Y-100870681D01*
X115122009Y-100870680D01*
X114781915Y-100790077D01*
X114738519Y-100785004D01*
X114434759Y-100749500D01*
X114085241Y-100749500D01*
X113781480Y-100785004D01*
X113738085Y-100790077D01*
X113738083Y-100790077D01*
X113397990Y-100870680D01*
X113397987Y-100870681D01*
X113069547Y-100990223D01*
X113069541Y-100990226D01*
X112757203Y-101147088D01*
X112465194Y-101339146D01*
X112465186Y-101339152D01*
X112197442Y-101563817D01*
X112197440Y-101563819D01*
X112011792Y-101760594D01*
X111951469Y-101795848D01*
X111921598Y-101799500D01*
X109246314Y-101799500D01*
X109179275Y-101779815D01*
X109133520Y-101727011D01*
X109123576Y-101657853D01*
X109152601Y-101594297D01*
X109170827Y-101577124D01*
X109171167Y-101576863D01*
X109258813Y-101509610D01*
X113982519Y-96785902D01*
X114043840Y-96752419D01*
X114081629Y-96750570D01*
X114081633Y-96750512D01*
X114081633Y-96750500D01*
X114081634Y-96750500D01*
X114081646Y-96750290D01*
X114084256Y-96750442D01*
X114084601Y-96750425D01*
X114085241Y-96750500D01*
X114085248Y-96750500D01*
X114434752Y-96750500D01*
X114434759Y-96750500D01*
X114781914Y-96709923D01*
X115122011Y-96629319D01*
X115450451Y-96509777D01*
X115762793Y-96352913D01*
X116054811Y-96160849D01*
X116322558Y-95936183D01*
X116562412Y-95681953D01*
X116771130Y-95401596D01*
X116945889Y-95098904D01*
X117084326Y-94777971D01*
X117184569Y-94443136D01*
X117245262Y-94098927D01*
X117265585Y-93750000D01*
X117245262Y-93401073D01*
X117225048Y-93286433D01*
X117184571Y-93056872D01*
X117184569Y-93056865D01*
X117184569Y-93056864D01*
X117084326Y-92722029D01*
X116945889Y-92401096D01*
X116786338Y-92124745D01*
X116771129Y-92098402D01*
X116562415Y-91818050D01*
X116562410Y-91818044D01*
X116446433Y-91695117D01*
X116322558Y-91563817D01*
X116174488Y-91439572D01*
X116054813Y-91339152D01*
X116054805Y-91339146D01*
X115762796Y-91147088D01*
X115450458Y-90990226D01*
X115450452Y-90990223D01*
X115122012Y-90870681D01*
X115122009Y-90870680D01*
X114781915Y-90790077D01*
X114738519Y-90785004D01*
X114434759Y-90749500D01*
X114085241Y-90749500D01*
X113781480Y-90785004D01*
X113738085Y-90790077D01*
X113738083Y-90790077D01*
X113397990Y-90870680D01*
X113397987Y-90870681D01*
X113069547Y-90990223D01*
X113069541Y-90990226D01*
X112757203Y-91147088D01*
X112465194Y-91339146D01*
X112465186Y-91339152D01*
X112197442Y-91563817D01*
X112197440Y-91563819D01*
X111957589Y-91818044D01*
X111957584Y-91818050D01*
X111748870Y-92098402D01*
X111574113Y-92401091D01*
X111574107Y-92401104D01*
X111435674Y-92722027D01*
X111335430Y-93056865D01*
X111335428Y-93056872D01*
X111274739Y-93401061D01*
X111274738Y-93401072D01*
X111254415Y-93749996D01*
X111254415Y-93750004D01*
X111264782Y-93928012D01*
X111249029Y-93996082D01*
X111228673Y-94022902D01*
X107198396Y-98053181D01*
X107137073Y-98086666D01*
X107110715Y-98089500D01*
X100169946Y-98089500D01*
X100102907Y-98069815D01*
X100082264Y-98053180D01*
X100044039Y-98014954D01*
X99786868Y-97813473D01*
X99720695Y-97773470D01*
X99507279Y-97644455D01*
X99209361Y-97510373D01*
X99209354Y-97510370D01*
X99209342Y-97510366D01*
X99151637Y-97492385D01*
X99093489Y-97453648D01*
X99065515Y-97389623D01*
X99076597Y-97320637D01*
X99123215Y-97268594D01*
X99188527Y-97250000D01*
X99650000Y-97250000D01*
X99650000Y-96552172D01*
X99649999Y-96552155D01*
X99643598Y-96492627D01*
X99643596Y-96492620D01*
X99593354Y-96357913D01*
X99593350Y-96357906D01*
X99507190Y-96242812D01*
X99507187Y-96242809D01*
X99392093Y-96156649D01*
X99392086Y-96156645D01*
X99257379Y-96106403D01*
X99257372Y-96106401D01*
X99197844Y-96100000D01*
X98500000Y-96100000D01*
X98500000Y-97124722D01*
X98423694Y-97080667D01*
X98309244Y-97050000D01*
X98190756Y-97050000D01*
X98076306Y-97080667D01*
X98000000Y-97124722D01*
X98000000Y-96100000D01*
X97302155Y-96100000D01*
X97242627Y-96106401D01*
X97242620Y-96106403D01*
X97107913Y-96156645D01*
X97107906Y-96156649D01*
X96992812Y-96242809D01*
X96992809Y-96242812D01*
X96906649Y-96357906D01*
X96906645Y-96357913D01*
X96856403Y-96492620D01*
X96856401Y-96492627D01*
X96850000Y-96552155D01*
X96850000Y-97250000D01*
X97311473Y-97250000D01*
X97378512Y-97269685D01*
X97424267Y-97322489D01*
X97434211Y-97391647D01*
X97405186Y-97455203D01*
X97348363Y-97492385D01*
X97290657Y-97510366D01*
X97290641Y-97510372D01*
X97290639Y-97510373D01*
X97182052Y-97559244D01*
X96992725Y-97644453D01*
X96992723Y-97644454D01*
X96713131Y-97813473D01*
X96455960Y-98014954D01*
X96224954Y-98245960D01*
X96023473Y-98503131D01*
X95896708Y-98712825D01*
X95854455Y-98782721D01*
X95738368Y-99040657D01*
X95720372Y-99080642D01*
X95720366Y-99080657D01*
X95623178Y-99392547D01*
X95564289Y-99713900D01*
X95544564Y-100040000D01*
X95564289Y-100366099D01*
X95623178Y-100687452D01*
X95720366Y-100999342D01*
X95720370Y-100999354D01*
X95720373Y-100999361D01*
X95854455Y-101297279D01*
X95982811Y-101509605D01*
X96023470Y-101576863D01*
X96040834Y-101599026D01*
X96066684Y-101663938D01*
X96053336Y-101732521D01*
X96005028Y-101783000D01*
X95943224Y-101799500D01*
X90819285Y-101799500D01*
X90752246Y-101779815D01*
X90731604Y-101763181D01*
X88985277Y-100016854D01*
X88951792Y-99955531D01*
X88949184Y-99936666D01*
X88935710Y-99713896D01*
X88876821Y-99392547D01*
X88779627Y-99080639D01*
X88645545Y-98782721D01*
X88476530Y-98503137D01*
X88476528Y-98503134D01*
X88476526Y-98503131D01*
X88275045Y-98245960D01*
X88044039Y-98014954D01*
X87786868Y-97813473D01*
X87720695Y-97773470D01*
X87507279Y-97644455D01*
X87209361Y-97510373D01*
X87209354Y-97510370D01*
X87209342Y-97510366D01*
X87151637Y-97492385D01*
X87093489Y-97453648D01*
X87065515Y-97389623D01*
X87076597Y-97320637D01*
X87123215Y-97268594D01*
X87188527Y-97250000D01*
X87650000Y-97250000D01*
X87650000Y-96552172D01*
X87649999Y-96552155D01*
X87643598Y-96492627D01*
X87643596Y-96492620D01*
X87593354Y-96357913D01*
X87593350Y-96357906D01*
X87507190Y-96242812D01*
X87507187Y-96242809D01*
X87392093Y-96156649D01*
X87392086Y-96156645D01*
X87257379Y-96106403D01*
X87257372Y-96106401D01*
X87197844Y-96100000D01*
X86500000Y-96100000D01*
X86500000Y-97124722D01*
X86423694Y-97080667D01*
X86309244Y-97050000D01*
X86190756Y-97050000D01*
X86076306Y-97080667D01*
X86000000Y-97124722D01*
X86000000Y-96100000D01*
X85302155Y-96100000D01*
X85242627Y-96106401D01*
X85242620Y-96106403D01*
X85107913Y-96156645D01*
X85107906Y-96156649D01*
X84992812Y-96242809D01*
X84992809Y-96242812D01*
X84906649Y-96357906D01*
X84906645Y-96357913D01*
X84856403Y-96492620D01*
X84856401Y-96492627D01*
X84850000Y-96552155D01*
X84850000Y-97250000D01*
X85311473Y-97250000D01*
X85378512Y-97269685D01*
X85424267Y-97322489D01*
X85434211Y-97391647D01*
X85405186Y-97455203D01*
X85348363Y-97492385D01*
X85290657Y-97510366D01*
X85290641Y-97510372D01*
X85290639Y-97510373D01*
X85182052Y-97559244D01*
X84992725Y-97644453D01*
X84992723Y-97644454D01*
X84713131Y-97813473D01*
X84455960Y-98014954D01*
X84224954Y-98245960D01*
X84023473Y-98503131D01*
X83896708Y-98712825D01*
X83854455Y-98782721D01*
X83738368Y-99040657D01*
X83720372Y-99080642D01*
X83720366Y-99080657D01*
X83623178Y-99392547D01*
X83564289Y-99713900D01*
X83544564Y-100040000D01*
X72800500Y-100040000D01*
X72800500Y-92618097D01*
X74499500Y-92618097D01*
X74536446Y-92851368D01*
X74609433Y-93075996D01*
X74716657Y-93286433D01*
X74855483Y-93477510D01*
X75022490Y-93644517D01*
X75213567Y-93783343D01*
X75312991Y-93834002D01*
X75424003Y-93890566D01*
X75424005Y-93890566D01*
X75424008Y-93890568D01*
X75539242Y-93928010D01*
X75648631Y-93963553D01*
X75881903Y-94000500D01*
X75881908Y-94000500D01*
X76118097Y-94000500D01*
X76351368Y-93963553D01*
X76357443Y-93961579D01*
X76575992Y-93890568D01*
X76786433Y-93783343D01*
X76977510Y-93644517D01*
X77144517Y-93477510D01*
X77283343Y-93286433D01*
X77390568Y-93075992D01*
X77463553Y-92851368D01*
X77500500Y-92618097D01*
X77500500Y-92381902D01*
X77463553Y-92148631D01*
X77390566Y-91924003D01*
X77283342Y-91713566D01*
X77144517Y-91522490D01*
X76977510Y-91355483D01*
X76786433Y-91216657D01*
X76575996Y-91109433D01*
X76351368Y-91036446D01*
X76118097Y-90999500D01*
X76118092Y-90999500D01*
X75881908Y-90999500D01*
X75881903Y-90999500D01*
X75648631Y-91036446D01*
X75424003Y-91109433D01*
X75213566Y-91216657D01*
X75104550Y-91295862D01*
X75022490Y-91355483D01*
X75022488Y-91355485D01*
X75022487Y-91355485D01*
X74855485Y-91522487D01*
X74855485Y-91522488D01*
X74855483Y-91522490D01*
X74825457Y-91563817D01*
X74716657Y-91713566D01*
X74609433Y-91924003D01*
X74536446Y-92148631D01*
X74499500Y-92381902D01*
X74499500Y-92618097D01*
X72800500Y-92618097D01*
X72800500Y-89374500D01*
X72820185Y-89307461D01*
X72872989Y-89261706D01*
X72924500Y-89250500D01*
X203575500Y-89250500D01*
X203642539Y-89270185D01*
G37*
%TD.AperFunction*%
%TD*%
M02*
